<svg width="2072" height="5153" viewBox="0 0 2072 5153" fill="none" xmlns="http://www.w3.org/2000/svg">
<path fill-rule="evenodd" clip-rule="evenodd" d="M1335.3 720.5H2028C2037.28 720.778 2046.24 723.943 2053.63 729.554C2061.02 735.165 2066.48 742.943 2069.24 751.803C2072.01 760.664 2071.94 770.165 2069.04 778.984C2066.15 787.802 2060.58 795.498 2053.1 800.999L1493.1 1208.2C1485.44 1213.73 1479.73 1221.55 1476.8 1230.54C1473.87 1239.53 1473.87 1249.21 1476.8 1258.2L1690.9 1917C1693.88 1925.98 1693.92 1935.66 1691.03 1944.67C1688.13 1953.67 1682.45 1961.52 1674.81 1967.09C1667.16 1972.65 1657.95 1975.64 1648.49 1975.62C1639.04 1975.61 1629.83 1972.59 1622.2 1967L1062.2 1559.9C1054.6 1554.34 1045.42 1551.35 1036 1551.35C1026.58 1551.35 1017.41 1554.34 1009.8 1559.9L449.801 1967C442.174 1972.59 432.968 1975.61 423.512 1975.62C414.055 1975.64 404.839 1972.65 397.194 1967.09C389.548 1961.52 383.869 1953.67 380.977 1944.67C378.084 1935.66 378.128 1925.98 381.101 1917L594.801 1258.8C597.733 1249.81 597.735 1240.13 594.805 1231.14C591.875 1222.15 586.166 1214.33 578.501 1208.8L18.5013 801.599C10.868 796.062 5.18665 788.247 2.27332 779.277C-0.640009 770.308 -0.635249 760.646 2.28687 751.68C5.20905 742.713 10.8981 734.904 18.5369 729.373C26.1756 723.843 35.3708 720.876 44.8013 720.899H737.501C746.924 720.875 756.097 717.874 763.712 712.324C771.326 706.775 776.992 698.961 779.901 689.999L994.001 30.7994C996.92 21.8544 1002.59 14.0616 1010.21 8.53578C1017.82 3.00994 1026.99 0.0341797 1036.4 0.0341797C1045.81 0.0341797 1054.98 3.00994 1062.59 8.53578C1070.21 14.0616 1075.88 21.8544 1078.8 30.7994L1292.9 689.999C1295.88 698.887 1301.57 706.613 1309.18 712.086C1316.79 717.56 1325.93 720.503 1335.3 720.5ZM287.001 2411.3H1787C1842.41 2411.41 1895.52 2433.49 1934.67 2472.71C1973.82 2511.93 1995.8 2565.08 1995.8 2620.5V4192.7C1995.8 4318.69 1970.99 4443.45 1922.77 4559.85C1874.56 4676.25 1803.89 4782.01 1714.8 4871.1C1625.71 4960.19 1519.95 5030.85 1403.55 5079.07C1287.15 5127.28 1162.39 5152.1 1036.4 5152.1C910.411 5152.1 785.654 5127.28 669.254 5079.07C552.855 5030.85 447.091 4960.19 358.003 4871.1C268.914 4782.01 198.245 4676.25 150.031 4559.85C101.816 4443.45 77.0009 4318.69 77.0009 4192.7V2620.5C77.0007 2592.96 82.4383 2565.69 93.0015 2540.26C103.565 2514.82 119.046 2491.73 138.557 2472.29C158.068 2452.85 181.224 2437.46 206.698 2426.99C232.172 2416.53 259.461 2411.19 287.001 2411.3ZM1262.8 3600H1580.3C1589.72 3600 1598.94 3597.3 1606.87 3592.22C1614.8 3587.13 1621.11 3579.88 1625.03 3571.32C1628.96 3562.75 1630.35 3553.24 1629.03 3543.92C1627.71 3534.59 1623.75 3525.84 1617.6 3518.7L1073.7 2885.9C1069.09 2880.51 1063.37 2876.19 1056.93 2873.23C1050.49 2870.26 1043.49 2868.73 1036.4 2868.73C1029.31 2868.73 1022.31 2870.26 1015.87 2873.23C1009.43 2876.19 1003.71 2880.51 999.101 2885.9L455.201 3518.7C449.055 3525.84 445.088 3534.59 443.77 3543.92C442.453 3553.24 443.841 3562.75 447.769 3571.32C451.697 3579.88 458 3587.13 465.929 3592.22C473.859 3597.3 483.081 3600 492.501 3600H810.001V4193C810.001 4253.04 833.854 4310.63 876.312 4353.09C918.77 4395.55 976.356 4419.4 1036.4 4419.4C1096.45 4419.4 1154.03 4395.55 1196.49 4353.09C1238.95 4310.63 1262.8 4253.04 1262.8 4193V3600Z" fill="black"/>
</svg>
