<svg width="5250" height="5250" viewBox="0 0 5250 5250" fill="none" xmlns="http://www.w3.org/2000/svg">
<g filter="url(#filter0_d)">
<path fill-rule="evenodd" clip-rule="evenodd" d="M2899.21 768.465H3591.91C3601.19 768.744 3610.15 771.909 3617.54 777.52C3624.93 783.131 3630.39 790.909 3633.15 799.769C3635.91 808.63 3635.84 818.131 3632.95 826.949C3630.06 835.768 3624.48 843.464 3617.01 848.965L3057.01 1256.17C3049.34 1261.7 3043.64 1269.52 3040.71 1278.51C3037.78 1287.49 3037.78 1297.18 3040.71 1306.17L3254.81 1964.97C3257.78 1973.94 3257.83 1983.63 3254.93 1992.63C3252.04 2001.64 3246.36 2009.49 3238.72 2015.05C3231.07 2020.62 3221.86 2023.61 3212.4 2023.59C3202.94 2023.58 3193.74 2020.55 3186.11 2014.97L2626.11 1607.87C2618.5 1602.31 2609.33 1599.31 2599.91 1599.31C2590.49 1599.31 2581.31 1602.31 2573.71 1607.87L2013.71 2014.97C2006.08 2020.55 1996.88 2023.58 1987.42 2023.59C1977.96 2023.61 1968.75 2020.62 1961.1 2015.05C1953.46 2009.49 1947.78 2001.64 1944.88 1992.63C1941.99 1983.63 1942.04 1973.94 1945.01 1964.97L2158.71 1306.77C2161.64 1297.78 2161.64 1288.09 2158.71 1279.11C2155.78 1270.12 2150.07 1262.3 2142.41 1256.77L1582.41 849.565C1574.78 844.027 1569.09 836.212 1566.18 827.243C1563.27 818.274 1563.27 808.612 1566.2 799.645C1569.12 790.679 1574.81 782.87 1582.45 777.339C1590.08 771.809 1599.28 768.842 1608.71 768.865H2301.41C2310.83 768.841 2320.01 765.839 2327.62 760.29C2335.23 754.741 2340.9 746.927 2343.81 737.965L2557.91 78.7653C2560.83 69.8202 2566.5 62.0274 2574.12 56.5016C2581.73 50.9758 2590.9 48 2600.31 48C2609.72 48 2618.89 50.9758 2626.5 56.5016C2634.12 62.0274 2639.79 69.8202 2642.71 78.7653L2856.81 737.965C2859.79 746.853 2865.48 754.579 2873.09 760.052C2880.7 765.525 2889.84 768.469 2899.21 768.465ZM1850.91 2459.26H3350.91C3406.32 2459.37 3459.43 2481.46 3498.58 2520.68C3537.72 2559.9 3559.71 2613.05 3559.71 2668.46V4240.66C3559.71 4366.65 3534.89 4491.41 3486.68 4607.81C3438.46 4724.21 3367.8 4829.97 3278.71 4919.06C3189.62 5008.15 3083.86 5078.82 2967.46 5127.03C2851.06 5175.25 2726.3 5200.06 2600.31 5200.06C2474.32 5200.06 2349.56 5175.25 2233.16 5127.03C2116.76 5078.82 2011 5008.15 1921.91 4919.06C1832.82 4829.97 1762.15 4724.21 1713.94 4607.81C1665.72 4491.41 1640.91 4366.65 1640.91 4240.66V2668.46C1640.91 2640.92 1646.35 2613.66 1656.91 2588.22C1667.47 2562.79 1682.95 2539.69 1702.46 2520.25C1721.98 2500.82 1745.13 2485.43 1770.61 2474.96C1796.08 2464.49 1823.37 2459.16 1850.91 2459.26ZM2826.71 3647.96H3144.21C3153.63 3647.97 3162.85 3645.27 3170.78 3640.18C3178.71 3635.1 3185.01 3627.84 3188.94 3619.28C3192.87 3610.72 3194.26 3601.21 3192.94 3591.88C3191.62 3582.56 3187.65 3573.8 3181.51 3566.66L2637.61 2933.86C2633 2928.48 2627.28 2924.16 2620.84 2921.19C2614.4 2918.23 2607.4 2916.69 2600.31 2916.69C2593.22 2916.69 2586.22 2918.23 2579.78 2921.19C2573.34 2924.16 2567.62 2928.48 2563.01 2933.86L2019.11 3566.66C2012.96 3573.8 2009 3582.56 2007.68 3591.88C2006.36 3601.21 2007.75 3610.72 2011.68 3619.28C2015.6 3627.84 2021.91 3635.1 2029.84 3640.18C2037.77 3645.27 2046.99 3647.97 2056.41 3647.96H2373.91V4240.96C2373.91 4301.01 2397.76 4358.6 2440.22 4401.05C2482.68 4443.51 2540.26 4467.36 2600.31 4467.36C2660.35 4467.36 2717.94 4443.51 2760.4 4401.05C2802.86 4358.6 2826.71 4301.01 2826.71 4240.96V3647.96Z" fill="black"/>
</g>
<defs>
<filter id="filter0_d" x="-4" y="0" width="5258" height="5258" filterUnits="userSpaceOnUse" color-interpolation-filters="sRGB">
<feFlood flood-opacity="0" result="BackgroundImageFix"/>
<feColorMatrix in="SourceAlpha" type="matrix" values="0 0 0 0 0 0 0 0 0 0 0 0 0 0 0 0 0 0 127 0"/>
<feOffset dy="4"/>
<feGaussianBlur stdDeviation="2"/>
<feColorMatrix type="matrix" values="0 0 0 0 0 0 0 0 0 0 0 0 0 0 0 0 0 0 0.25 0"/>
<feBlend mode="normal" in2="BackgroundImageFix" result="effect1_dropShadow"/>
<feBlend mode="normal" in="SourceGraphic" in2="effect1_dropShadow" result="shape"/>
</filter>
</defs>
</svg>
