<svg width="166" height="111" viewBox="0 0 166 111" fill="none" xmlns="http://www.w3.org/2000/svg">
<rect x="42" y="18" width="100" height="69" rx="3" stroke="black" stroke-width="4"/>
<path d="M92.0438 98H22.056C20.9605 98 20.6623 96.4923 21.6753 96.0753L43.7201 87H92.0438" stroke="black" stroke-width="4"/>
<path d="M90.9562 98H160.944C162.039 98 162.338 96.4923 161.325 96.0753L139.28 87H90.9562" stroke="black" stroke-width="4"/>
<mask id="path-4-inside-1" fill="white">
<rect x="77" y="44.5" width="30" height="30" rx="3"/>
</mask>
<rect x="77" y="44.5" width="30" height="30" rx="3" stroke="black" stroke-width="8" mask="url(#path-4-inside-1)"/>
<path d="M88.4142 56.0858C87.6332 55.3047 86.3668 55.3047 85.5858 56.0858C84.8047 56.8668 84.8047 58.1332 85.5858 58.9142L88.4142 56.0858ZM94 64.5L92.5858 65.9142C93.0133 66.3418 93.6113 66.5529 94.2125 66.4887C94.8137 66.4244 95.3536 66.0916 95.6811 65.5834L94 64.5ZM110.181 43.0834C110.779 42.1549 110.512 40.9172 109.583 40.3189C108.655 39.7205 107.417 39.9881 106.819 40.9166L110.181 43.0834ZM85.5858 58.9142L92.5858 65.9142L95.4142 63.0858L88.4142 56.0858L85.5858 58.9142ZM95.6811 65.5834L110.181 43.0834L106.819 40.9166L92.3189 63.4166L95.6811 65.5834Z" fill="black"/>
<rect x="2" y="2" width="56" height="107" rx="7" fill="white" stroke="black" stroke-width="4"/>
<path d="M11.5 2L13.0355 10.0613C13.305 11.4763 14.5421 12.5 15.9825 12.5H30" stroke="black" stroke-width="4"/>
<path d="M48.5 2L46.9645 10.0613C46.695 11.4763 45.4579 12.5 44.0175 12.5H30" stroke="black" stroke-width="4"/>
<mask id="path-9-inside-2" fill="white">
<rect x="16" y="45.5" width="30" height="30" rx="3"/>
</mask>
<rect x="16" y="45.5" width="30" height="30" rx="3" stroke="black" stroke-width="8" mask="url(#path-9-inside-2)"/>
<path d="M27.4142 57.0858C26.6332 56.3047 25.3668 56.3047 24.5858 57.0858C23.8047 57.8668 23.8047 59.1332 24.5858 59.9142L27.4142 57.0858ZM33 65.5L31.5858 66.9142C32.0133 67.3418 32.6113 67.5529 33.2125 67.4887C33.8137 67.4244 34.3536 67.0916 34.6811 66.5834L33 65.5ZM49.1811 44.0834C49.7795 43.1549 49.5119 41.9172 48.5834 41.3189C47.6549 40.7205 46.4172 40.9881 45.8189 41.9166L49.1811 44.0834ZM24.5858 59.9142L31.5858 66.9142L34.4142 64.0858L27.4142 57.0858L24.5858 59.9142ZM34.6811 66.5834L49.1811 44.0834L45.8189 41.9166L31.3189 64.4166L34.6811 66.5834Z" fill="black"/>
</svg>
