<svg width="48" height="48" viewBox="0 0 48 48" fill="none" xmlns="http://www.w3.org/2000/svg">
<path d="M24 4.32426C30.4087 4.32426 31.167 4.34903 33.6983 4.4643C36.0381 4.571 37.309 4.9616 38.155 5.29028C39.1987 5.67458 40.1428 6.28827 40.9178 7.08609C41.7156 7.86101 42.3293 8.80515 42.7136 9.84887C43.0422 10.6948 43.4328 11.9657 43.5395 14.3055C43.6548 16.8368 43.6796 17.5951 43.6796 24.0038C43.6796 30.4125 43.6548 31.1709 43.5395 33.7022C43.4328 36.0419 43.0422 37.3128 42.7136 38.1588C42.3139 39.1936 41.7022 40.1334 40.9178 40.9178C40.1334 41.7022 39.1936 42.3139 38.1588 42.7136C37.3128 43.0423 36.0419 43.4329 33.7021 43.5396C31.1718 43.6548 30.4125 43.6796 24.0038 43.6796C17.5951 43.6796 16.8358 43.6548 14.3055 43.5396C11.9657 43.4329 10.6948 43.0423 9.84884 42.7136C8.80513 42.3293 7.86099 41.7156 7.08606 40.9178C6.28824 40.1428 5.67455 39.1987 5.29025 38.155C4.96158 37.309 4.57097 36.0381 4.46427 33.6983C4.349 31.1671 4.32423 30.4087 4.32423 24C4.32423 17.5913 4.349 16.833 4.46427 14.3017C4.57097 11.9619 4.96158 10.691 5.29025 9.84506C5.67455 8.80134 6.28824 7.8572 7.08606 7.08227C7.86099 6.28446 8.80513 5.67077 9.84884 5.28647C10.6948 4.95779 11.9657 4.56719 14.3055 4.46049C16.8368 4.34522 17.5951 4.32045 24.0038 4.32045L24 4.32426ZM24.0038 -0.00378418C17.4856 -0.00378418 16.6681 0.0238436 14.1083 0.141024C11.5484 0.258204 9.80597 0.666905 8.27882 1.26043C6.67752 1.86295 5.22687 2.8074 4.02795 4.02797C2.8091 5.22736 1.86629 6.67798 1.26516 8.27885C0.666878 9.806 0.261035 11.5504 0.144808 14.1045C0.0285805 16.6586 0 17.4818 0 24C0 30.5183 0.0276278 31.3357 0.144808 33.8955C0.261988 36.4554 0.666878 38.1941 1.2604 39.7212C1.86292 41.3225 2.80738 42.7732 4.02795 43.9721C5.22708 45.1926 6.67766 46.1373 8.27882 46.7406C9.80311 47.3331 11.5503 47.739 14.1045 47.8562C16.6586 47.9734 17.4817 48 24 48C30.5183 48 31.3357 47.9724 33.8955 47.8562C36.4554 47.7399 38.194 47.3331 39.7212 46.7406C41.3155 46.1238 42.7633 45.1808 43.9721 43.9721C45.1808 42.7634 46.1238 41.3155 46.7406 39.7212C47.3331 38.1969 47.739 36.4497 47.8561 33.8955C47.9733 31.3414 48 30.5183 48 24C48 17.4818 47.9724 16.6644 47.8561 14.1045C47.7399 11.5446 47.3331 9.806 46.7406 8.27885C46.1373 6.67768 45.1926 5.22711 43.9721 4.02797C42.7727 2.80912 41.322 1.86632 39.7212 1.26519C38.194 0.666905 36.4497 0.261062 33.8955 0.144834C31.3414 0.028607 30.5183 2.65539e-05 24 2.65539e-05L24.0038 -0.00378418Z" fill="white"/>
<path d="M24 11.6761C21.5623 11.6761 19.1794 12.399 17.1526 13.7533C15.1257 15.1076 13.546 17.0326 12.6132 19.2847C11.6804 21.5368 11.4364 24.015 11.912 26.4058C12.3877 28.7966 13.5616 30.9927 15.2853 32.7164C17.0091 34.44 19.2053 35.6137 21.5961 36.0892C23.987 36.5646 26.4651 36.3204 28.7172 35.3874C30.9692 34.4545 32.8941 32.8746 34.2482 30.8477C35.6024 28.8207 36.3251 26.4377 36.3249 24.0001C36.325 22.3815 36.0063 20.7789 35.3869 19.2835C34.7676 17.7882 33.8597 16.4295 32.7152 15.2851C31.5707 14.1407 30.212 13.233 28.7166 12.6137C27.2212 11.9945 25.6185 11.6759 24 11.6761ZM24 31.9998C22.4172 31.9998 20.87 31.5304 19.554 30.6511C18.238 29.7717 17.2123 28.5219 16.6066 27.0596C16.0009 25.5974 15.8424 23.9883 16.1512 22.436C16.46 20.8836 17.2222 19.4577 18.3413 18.3386C19.4605 17.2194 20.8864 16.4572 22.4388 16.1484C23.9911 15.8397 25.6002 15.9981 27.0624 16.6038C28.5247 17.2095 29.7745 18.2352 30.6539 19.5512C31.5332 20.8672 32.0025 22.4145 32.0025 23.9972C32.0025 26.1196 31.1594 28.1551 29.6586 29.6559C28.1579 31.1566 26.1224 31.9998 24 31.9998Z" fill="white"/>
<path d="M36.8117 14.0683C38.4022 14.0683 39.6917 12.7789 39.6917 11.1883C39.6917 9.59775 38.4022 8.30835 36.8117 8.30835C35.2211 8.30835 33.9317 9.59775 33.9317 11.1883C33.9317 12.7789 35.2211 14.0683 36.8117 14.0683Z" fill="white"/>
</svg>
