<svg width="42" height="78" viewBox="0 0 42 78" fill="none" xmlns="http://www.w3.org/2000/svg">
<path d="M27.6924 14.0798C30.7527 14.9802 33.5362 16.6452 35.7829 18.9195C35.9879 19.1358 36.2378 19.3042 36.5148 19.4127C36.7918 19.5212 37.0891 19.5671 37.3858 19.5471C38.0548 19.5492 38.6983 19.2887 39.1791 18.8211C39.6599 18.3535 39.9401 17.7157 39.96 17.0435C39.9473 16.6653 39.8533 16.2943 39.6844 15.956C39.5155 15.6178 39.2758 15.3203 38.9817 15.084C35.843 12.0766 31.9345 10.0051 27.6924 9.10059V14.0798Z" fill="white"/>
<path d="M27.6924 36.9183V42.6646C32.8062 44.6381 36.6711 47.5461 36.6711 53.3691C36.6711 57.358 34.5895 62.4348 27.6924 64.3456V69.2271C38.4127 67.0583 42 59.4362 42 52.9995C42 43.3132 35.325 39.4428 27.6924 36.9183Z" fill="white"/>
<path d="M23.3557 65.0569V2.05023C23.3253 1.52623 23.0968 1.03373 22.7169 0.673547C22.337 0.313361 21.8345 0.112732 21.3122 0.112732C20.79 0.112732 20.2875 0.313361 19.9076 0.673547C19.5277 1.03373 19.2992 1.52623 19.2688 2.05023V8.36833C9.14521 8.81464 1.15182 14.8817 1.15182 24.1636C1.15182 34.6938 10.297 37.553 19.2688 40.0495V65.1546C13.5881 64.744 8.25156 62.2644 4.26036 58.1809C3.78319 57.7895 3.19001 57.5687 2.57425 57.5533C2.23528 57.5542 1.89981 57.6222 1.587 57.7534C1.27418 57.8847 0.99014 58.0765 0.751097 58.3181C0.512055 58.5596 0.32269 58.8461 0.193815 59.1612C0.0649398 59.4763 -0.000921803 59.8138 -9.37277e-06 60.1545C-0.0099125 60.5055 0.0563333 60.8545 0.194128 61.1773C0.331922 61.5 0.537963 61.7887 0.797942 62.0234C5.14851 66.3959 11.4558 69.52 19.2688 69.8757V75.9497C19.2992 76.4737 19.5277 76.9662 19.9076 77.3264C20.2875 77.6866 20.79 77.8872 21.3122 77.8872C21.8345 77.8872 22.337 77.6866 22.7169 77.3264C23.0968 76.9662 23.3253 76.4737 23.3557 75.9497V65.0569ZM19.2688 34.4497C12.3301 32.4831 6.48074 30.2655 6.48074 23.9195C6.48074 17.7618 11.9901 13.3893 19.2688 13.0267V34.4497Z" fill="white"/>
</svg>
