<svg width="1525" height="3790" viewBox="0 0 1525 3790" fill="none" xmlns="http://www.w3.org/2000/svg">
<path d="M1315.06 1773.5H211.799C191.543 1773.43 171.471 1777.35 152.735 1785.05C133.999 1792.74 116.967 1804.07 102.617 1818.36C88.2658 1832.66 76.8798 1849.65 69.1098 1868.35C61.3408 1887.06 57.3418 1907.12 57.3418 1927.37V3083.74C57.3418 3176.41 75.5938 3268.17 111.056 3353.78C146.518 3439.39 198.496 3517.18 264.021 3582.71C329.546 3648.23 407.336 3700.21 492.95 3735.67C578.56 3771.13 670.32 3789.39 762.99 3789.39C855.66 3789.39 947.42 3771.13 1033.03 3735.67C1118.64 3700.21 1196.43 3648.23 1261.96 3582.71C1327.48 3517.18 1379.46 3439.39 1414.92 3353.78C1450.38 3268.17 1468.64 3176.41 1468.64 3083.74V1927.37C1468.64 1886.61 1452.47 1847.52 1423.67 1818.67C1394.88 1789.83 1355.82 1773.58 1315.06 1773.5ZM1163.03 2647.8H929.51V3083.96C929.51 3128.12 911.96 3170.48 880.74 3201.71C849.51 3232.93 807.15 3250.48 762.99 3250.48C718.83 3250.48 676.47 3232.93 645.24 3201.71C614.01 3170.48 596.47 3128.12 596.47 3083.96V2647.8H362.946C356.018 2647.8 349.234 2645.82 343.402 2642.08C337.57 2638.34 332.934 2633 330.045 2626.71C327.156 2620.41 326.135 2613.41 327.104 2606.55C328.073 2599.69 330.991 2593.26 335.511 2588.01L735.55 2122.58C738.94 2118.62 743.15 2115.44 747.89 2113.26C752.62 2111.08 757.78 2109.95 762.99 2109.95C768.2 2109.95 773.35 2111.08 778.09 2113.26C782.83 2115.44 787.03 2118.62 790.42 2122.58L1190.47 2588.01C1194.99 2593.26 1197.91 2599.69 1198.87 2606.55C1199.84 2613.41 1198.82 2620.41 1195.93 2626.71C1193.04 2633 1188.41 2638.34 1182.58 2642.08C1176.74 2645.82 1169.96 2647.8 1163.03 2647.8Z" fill="white"/>
<path d="M1492.32 529.909H982.84C975.94 529.911 969.22 527.746 963.63 523.721C958.03 519.695 953.84 514.012 951.65 507.476L794.18 22.628C792.03 16.049 787.86 10.317 782.26 6.25299C776.66 2.18899 769.91 0 762.99 0C756.07 0 749.33 2.18899 743.73 6.25299C738.13 10.317 733.95 16.049 731.81 22.628L574.33 507.476C572.195 514.067 568.027 519.814 562.426 523.896C556.826 527.977 550.079 530.185 543.149 530.203H33.6618C26.7248 530.186 19.9618 532.368 14.3438 536.435C8.72585 540.503 4.54085 546.247 2.39185 552.842C0.242853 559.437 0.238843 566.543 2.38184 573.14C4.52484 579.737 8.70285 585.485 14.3178 589.558L426.203 889.06C431.84 893.13 436.039 898.88 438.194 905.49C440.349 912.1 440.348 919.22 438.191 925.83L281.013 1409.94C278.826 1416.55 278.794 1423.67 280.921 1430.3C283.049 1436.92 287.226 1442.69 292.849 1446.78C298.473 1450.88 305.251 1453.08 312.206 1453.06C319.161 1453.05 325.933 1450.83 331.543 1446.72L743.43 1147.29C749.02 1143.21 755.77 1141 762.7 1141C769.63 1141 776.37 1143.21 781.97 1147.29L1193.85 1446.72C1199.46 1450.83 1206.23 1453.05 1213.19 1453.06C1220.14 1453.08 1226.92 1450.88 1232.55 1446.78C1238.17 1442.69 1242.35 1436.92 1244.47 1430.3C1246.6 1423.67 1246.57 1416.55 1244.38 1409.94L1086.91 925.39C1084.75 918.78 1084.75 911.66 1086.91 905.05C1089.06 898.44 1093.26 892.68 1098.9 888.62L1510.78 589.117C1516.28 585.071 1520.38 579.41 1522.51 572.924C1524.64 566.438 1524.69 559.45 1522.66 552.933C1520.62 546.416 1516.61 540.696 1511.17 536.568C1505.74 532.441 1499.15 530.113 1492.32 529.909Z" fill="white"/>
</svg>
