<svg width="372" height="456" viewBox="0 0 372 456" fill="none" xmlns="http://www.w3.org/2000/svg">
<path d="M175.02 335.86C196.532 335.86 213.97 318.421 213.97 296.91C213.97 275.398 196.532 257.96 175.02 257.96C153.509 257.96 136.07 275.398 136.07 296.91C136.07 318.421 153.509 335.86 175.02 335.86Z" stroke="white" stroke-width="8" stroke-miterlimit="10" stroke-linecap="round"/>
<path d="M119.52 450.11C118.852 450.115 118.207 449.867 117.714 449.417C117.22 448.966 116.915 448.346 116.86 447.68C115.64 432.95 112.4 356.47 176.48 356.47C240.56 356.47 234.91 433.25 233.25 447.76C233.174 448.409 232.862 449.007 232.373 449.44C231.884 449.874 231.253 450.112 230.6 450.11H119.52Z" stroke="white" stroke-width="8" stroke-miterlimit="10" stroke-linecap="round"/>
<path d="M206.51 151.68H361C362.575 151.68 364.086 152.306 365.2 153.42C366.314 154.534 366.94 156.045 366.94 157.62V222.5C366.94 224.076 366.314 225.586 365.2 226.7C364.086 227.814 362.575 228.44 361 228.44H200.57V157.62C200.57 156.045 201.196 154.534 202.31 153.42C203.424 152.306 204.935 151.68 206.51 151.68V151.68Z" stroke="white" stroke-width="8" stroke-miterlimit="10" stroke-linecap="round"/>
<path d="M210.72 5H302.29C303.865 5 305.376 5.62582 306.49 6.73979C307.604 7.85375 308.23 9.36461 308.23 10.94V114.84C308.23 116.415 307.604 117.926 306.49 119.04C305.376 120.154 303.865 120.78 302.29 120.78H204.78V10.94C204.78 9.36461 205.406 7.85375 206.52 6.73979C207.634 5.62582 209.145 5 210.72 5Z" stroke="white" stroke-width="8" stroke-miterlimit="10" stroke-linecap="round"/>
<path d="M50.16 151.68H141.76C143.335 151.68 144.846 152.306 145.96 153.42C147.074 154.534 147.7 156.045 147.7 157.62V213.38H50.16C48.5846 213.38 47.0737 212.754 45.9598 211.64C44.8458 210.526 44.22 209.016 44.22 207.44V157.62C44.22 156.045 44.8458 154.534 45.9598 153.42C47.0737 152.306 48.5846 151.68 50.16 151.68V151.68Z" stroke="white" stroke-width="8" stroke-miterlimit="10" stroke-linecap="round"/>
<path d="M10.94 77.9199H157.82C159.395 77.9199 160.906 78.5457 162.02 79.6597C163.134 80.7737 163.76 82.2845 163.76 83.8599V120.79H10.94C10.1591 120.79 9.38588 120.636 8.66456 120.337C7.94323 120.038 7.28797 119.599 6.73625 119.047C6.18454 118.494 5.74721 117.838 5.44929 117.116C5.15137 116.394 4.99869 115.621 5.00001 114.84V83.8399C5.0053 82.268 5.63346 80.7623 6.74685 79.6526C7.86024 78.543 9.36808 77.9199 10.94 77.9199V77.9199Z" stroke="white" stroke-width="8" stroke-miterlimit="10" stroke-linecap="round"/>
<path d="M226.53 34.1602H288.29" stroke="white" stroke-width="8" stroke-miterlimit="10" stroke-linecap="round"/>
<path d="M226.53 59.6699H288.29" stroke="white" stroke-width="8" stroke-miterlimit="10" stroke-linecap="round"/>
<path d="M226.53 87.5298H288.29" stroke="white" stroke-width="8" stroke-miterlimit="10" stroke-linecap="round"/>
<path d="M22.23 99.3501H143.26" stroke="white" stroke-width="8" stroke-miterlimit="10" stroke-linecap="round"/>
<path d="M63.3701 170.89H128.32" stroke="white" stroke-width="8" stroke-miterlimit="10" stroke-linecap="round"/>
<path d="M63.3701 192.31H128.32" stroke="white" stroke-width="8" stroke-miterlimit="10" stroke-linecap="round"/>
<path d="M225.64 179.35H341.87" stroke="white" stroke-width="8" stroke-miterlimit="10" stroke-linecap="round"/>
<path d="M225.64 200.77H341.87" stroke="white" stroke-width="8" stroke-miterlimit="10" stroke-linecap="round"/>
</svg>
