<svg width="40" height="47" viewBox="0 0 40 47" fill="none" xmlns="http://www.w3.org/2000/svg">
<path fill-rule="evenodd" clip-rule="evenodd" d="M28.9548 0V0.0396757C28.9548 0.754956 29.1661 11.0986 39.9924 11.744C39.9924 21.3667 39.9969 11.744 39.9969 19.735C39.188 19.782 32.8721 19.3265 28.9426 15.8144L28.9309 31.3723C29.0279 38.4172 25.1157 45.3258 17.7919 46.7184C15.7393 47.1096 13.8897 47.152 10.7903 46.4725C-7.08053 41.1146 -1.14144 14.5481 16.8002 17.3914C16.8002 25.968 16.8052 17.3886 16.8052 25.968C9.39106 24.875 6.91374 31.0532 8.88322 35.4812C10.676 39.5103 18.0555 40.3843 20.6299 34.6989C20.9216 33.5861 21.0673 32.3178 21.0669 30.8939V0H28.9548Z" fill="white"/>
</svg>
