<svg width="21" height="24" viewBox="0 0 21 24" fill="none" xmlns="http://www.w3.org/2000/svg">
<g clip-path="url(#clip0)">
<path fill-rule="evenodd" clip-rule="evenodd" d="M14.951 0V0.0202599C14.951 0.385509 15.0589 5.66737 20.5873 5.99694C20.5873 10.9107 20.5896 5.99694 20.5896 10.0774C20.1765 10.1014 16.9514 9.86885 14.9448 8.07544L14.9388 16.0199C14.9884 19.6173 12.9907 23.1451 9.25084 23.8562C8.20271 24.056 7.25823 24.0776 5.67556 23.7306C-3.44997 20.9947 -0.417248 7.42882 8.74444 8.88071C8.74444 13.2603 8.74699 8.87929 8.74699 13.2603C4.96105 12.7021 3.69604 15.857 4.70173 18.1181C5.61719 20.1755 9.38545 20.6218 10.7 17.7186C10.849 17.1503 10.9234 16.5027 10.9232 15.7756V0H14.951Z" fill="black"/>
</g>
<defs>
<clipPath id="clip0">
<rect width="20.7568" height="24" fill="white"/>
</clipPath>
</defs>
</svg>
