<svg width="82" height="79" viewBox="0 0 82 79" fill="none" xmlns="http://www.w3.org/2000/svg">
<path d="M20.1041 42.2741L36.8255 74.5083H3.34086L20.1041 42.2741ZM20.1041 38.5604C19.5162 38.5595 18.9385 38.7306 18.4291 39.0566C17.9198 39.3826 17.4969 39.8519 17.2029 40.4172L0.44805 72.6515C0.154673 73.2157 0.000150748 73.8558 1.10243e-07 74.5073C-0.000150527 75.1589 0.154076 75.799 0.447192 76.3635C0.740308 76.9279 1.162 77.3967 1.66992 77.723C2.17783 78.0492 2.7541 78.2213 3.34086 78.2219H36.8589C37.4464 78.2229 38.0237 78.052 38.5328 77.7264C39.0419 77.4009 39.4648 76.9322 39.7589 76.3675C40.053 75.8028 40.2079 75.162 40.2082 74.5097C40.2084 73.8573 40.0538 73.2164 39.7601 72.6515L23.0387 40.4172C22.7455 39.8533 22.3238 39.3848 21.8161 39.0589C21.3083 38.733 20.7323 38.5611 20.1459 38.5604H20.1041Z" fill="white"/>
<path d="M20.1041 29.3415V2H79.0053V67.4061H47.1259" stroke="white" stroke-width="4" stroke-linecap="round" stroke-linejoin="round"/>
<path d="M32.6786 14.3663H66.205" stroke="white" stroke-width="4" stroke-linecap="round" stroke-linejoin="round"/>
<path d="M32.6786 24.5325H66.205" stroke="white" stroke-width="4" stroke-linecap="round" stroke-linejoin="round"/>
<path d="M32.6786 34.7078H66.205" stroke="white" stroke-width="4" stroke-linecap="round" stroke-linejoin="round"/>
<path d="M36.8589 44.8737H66.205" stroke="white" stroke-width="4" stroke-linecap="round" stroke-linejoin="round"/>
<path d="M43.79 55.0398H66.205" stroke="white" stroke-width="4" stroke-linecap="round" stroke-linejoin="round"/>
<path d="M20.1041 72.0017C21.0784 72.0017 21.8682 71.1247 21.8682 70.0428C21.8682 68.9609 21.0784 68.0839 20.1041 68.0839C19.1298 68.0839 18.34 68.9609 18.34 70.0428C18.34 71.1247 19.1298 72.0017 20.1041 72.0017Z" fill="white"/>
<path d="M21.2997 65.3265H19.0088L18.34 51.9388C18.34 51.4193 18.5258 50.921 18.8567 50.5536C19.1875 50.1862 19.6362 49.9799 20.1041 49.9799C20.5713 49.9823 21.0187 50.1895 21.3491 50.5563C21.6794 50.9232 21.866 51.42 21.8682 51.9388L21.2997 65.3265Z" fill="white"/>
</svg>
