<svg xmlns="http://www.w3.org/2000/svg" viewBox="0 0 407.88 659.96"><defs><style>.cls-1{fill:#fff;}</style></defs><g id="Layer_2" data-name="Layer 2"><g id="Layer_1-2" data-name="Layer 1"><path class="cls-1" d="M279,241.13h-150A20.92,20.92,0,0,0,108,262.05V419.27a95.94,95.94,0,1,0,191.88,0V262.05A20.92,20.92,0,0,0,279,241.13ZM258.33,360H226.58v59.3a22.64,22.64,0,1,1-45.28,0V360H149.55a4.92,4.92,0,0,1-3.73-8.13l54.39-63.28a4.91,4.91,0,0,1,7.46,0l54.39,63.28A4.92,4.92,0,0,1,258.33,360Z"/><path class="cls-1" d="M303.1,72.05H233.83A4.47,4.47,0,0,1,229.59,69L208.18,3.08a4.46,4.46,0,0,0-8.48,0L178.29,69a4.47,4.47,0,0,1-4.24,3.09H104.78a4.46,4.46,0,0,0-2.63,8.07l56,40.72a4.46,4.46,0,0,1,1.63,5L138.41,191.7a4.46,4.46,0,0,0,6.87,5l56-40.71a4.44,4.44,0,0,1,5.24,0l56,40.71a4.46,4.46,0,0,0,6.87-5l-21.41-65.88a4.46,4.46,0,0,1,1.63-5l56-40.72A4.46,4.46,0,0,0,303.1,72.05Z"/><path class="cls-1" d="M56.33,602.33v40.46H44.58v-7.07A37.68,37.68,0,0,1,21,643.48c-10.79,0-20.88-3.85-21-18.75l.14-22.4H12v17.93c0,8.59,2.89,13,12.57,13,7.9,0,16.42-4,20.06-8.31V602.33Z"/><path class="cls-1" d="M117.91,622.6c0,15.46-11.06,20.88-24.11,20.88-8.73,0-15.73-2.34-20.13-6.94V660H61.86V602.33H73.67v6.25c4.4-4.53,11.4-6.93,20.13-6.93C106.85,601.65,117.91,607.14,117.91,622.6Zm-11.75,0c0-8-5.77-11.13-16.28-11.13s-16.21,3.09-16.21,11.13,5.7,11.06,16.21,11.06S106.16,630.57,106.16,622.6Z"/><path class="cls-1" d="M176.35,612.16v11.67c0,7.83,1.51,9.83,8.65,9.83a59.2,59.2,0,0,0,10.51-.69v9.48a80.4,80.4,0,0,1-13.8,1c-10.44,0-17.17-3.91-17.17-12.85V612.16H153.89v-9.83h10.65V594l11.81-3.36v11.74h19.16v9.83Z"/><path class="cls-1" d="M198.49,622.6c0-14.91,11.27-21,28-21s28,6,28,21-11.34,20.88-28,20.88S198.49,637.43,198.49,622.6Zm44.24,0c0-8.45-5.36-11.13-16.21-11.13s-16.28,2.68-16.28,11.13,5.36,11.06,16.28,11.06S242.73,631,242.73,622.6Z"/><path class="cls-1" d="M347.47,602.33v40.46H335.72v-7.07a37.68,37.68,0,0,1-23.56,7.76c-10.79,0-20.88-3.85-21-18.75l.14-22.4h11.81v17.93c0,8.59,2.89,13,12.57,13,7.9,0,16.42-4,20.06-8.31V602.33Z"/><path class="cls-1" d="M363.71,628.58c0,4.32,4.47,6,17.59,6,12.71,0,14.77-.82,14.77-4s-1.93-3.3-16.15-4.19c-17.79-1-26.51-2.41-26.51-12.16,0-10.58,12.36-12.57,26.79-12.57,15.25,0,26.31,2,26.31,13.12H394.69c0-3.37-4.26-4.19-15.18-4.19-11.13,0-14.29.82-14.29,3.16,0,2.54,2.13,3,16.08,4,15.8,1.17,26.58,1.58,26.58,12.37,0,11.4-10.3,13.39-25.9,13.39s-30-2-30-14.9Z"/></g></g></svg>