<svg width="194" height="141" viewBox="0 0 194 141" fill="none" xmlns="http://www.w3.org/2000/svg">
<path d="M95.0979 12.8541C95.6966 11.0115 98.3034 11.0115 98.9021 12.8541L100.368 17.3647C100.635 18.1888 101.403 18.7467 102.27 18.7467L107.013 18.7467C108.95 18.7467 109.756 21.2259 108.188 22.3647L104.351 25.1525C103.65 25.6618 103.357 26.5645 103.625 27.3885L105.09 31.8992C105.689 33.7418 103.58 35.2741 102.013 34.1353L98.1756 31.3475C97.4746 30.8382 96.5254 30.8382 95.8244 31.3475L91.9874 34.1353C90.42 35.2741 88.3111 33.7418 88.9098 31.8992L90.3754 27.3885C90.6431 26.5645 90.3498 25.6618 89.6488 25.1525L85.8118 22.3647C84.2444 21.2259 85.05 18.7467 86.9874 18.7467L91.7302 18.7467C92.5966 18.7467 93.3645 18.1888 93.6323 17.3647L95.0979 12.8541Z" fill="white" stroke="black" stroke-width="4"/>
<circle cx="97" cy="24.2851" r="21.4922" stroke="black" stroke-width="4"/>
<path d="M44.2266 79.6055C44.2266 87.7085 37.6577 94.2774 29.5547 94.2774C21.4516 94.2774 14.8828 87.7085 14.8828 79.6055C14.8828 71.5024 21.4516 64.9336 29.5547 64.9336C37.6577 64.9336 44.2266 71.5024 44.2266 79.6055Z" stroke="black" stroke-width="4"/>
<path d="M111.672 79.6055C111.672 87.7085 105.103 94.2774 97 94.2774C88.8969 94.2774 82.3281 87.7085 82.3281 79.6055C82.3281 71.5024 88.8969 64.9336 97 64.9336C105.103 64.9336 111.672 71.5024 111.672 79.6055Z" stroke="black" stroke-width="4"/>
<path d="M179.117 79.6055C179.117 87.7085 172.548 94.2774 164.445 94.2774C156.342 94.2774 149.774 87.7085 149.774 79.6055C149.774 71.5024 156.342 64.9336 164.445 64.9336C172.548 64.9336 179.117 71.5024 179.117 79.6055Z" stroke="black" stroke-width="4"/>
<path d="M23.0078 128.105C23.0078 134.173 18.2492 138.988 12.5039 138.988C6.75862 138.988 2 134.173 2 128.105C2 122.038 6.75862 117.223 12.5039 117.223C18.2492 117.223 23.0078 122.038 23.0078 128.105Z" stroke="black" stroke-width="4"/>
<path d="M90.4532 128.105C90.4532 134.173 85.6945 138.988 79.9493 138.988C74.204 138.988 69.4453 134.173 69.4453 128.105C69.4453 122.038 74.204 117.223 79.9493 117.223C85.6945 117.223 90.4532 122.038 90.4532 128.105Z" stroke="black" stroke-width="4"/>
<path d="M157.898 128.105C157.898 134.173 153.14 138.988 147.395 138.988C141.649 138.988 136.891 134.173 136.891 128.105C136.891 122.038 141.649 117.223 147.395 117.223C153.14 117.223 157.898 122.038 157.898 128.105Z" stroke="black" stroke-width="4"/>
<path d="M57.1094 128.105C57.1094 134.173 52.3508 138.988 46.6055 138.988C40.8602 138.988 36.1016 134.173 36.1016 128.105C36.1016 122.038 40.8602 117.223 46.6055 117.223C52.3508 117.223 57.1094 122.038 57.1094 128.105Z" stroke="black" stroke-width="4"/>
<path d="M124.555 128.105C124.555 134.173 119.796 138.988 114.051 138.988C108.305 138.988 103.547 134.173 103.547 128.105C103.547 122.038 108.305 117.223 114.051 117.223C119.796 117.223 124.555 122.038 124.555 128.105Z" stroke="black" stroke-width="4"/>
<path d="M192 128.105C192 134.173 187.241 138.988 181.496 138.988C175.751 138.988 170.992 134.173 170.992 128.105C170.992 122.038 175.751 117.223 181.496 117.223C187.241 117.223 192 122.038 192 128.105Z" stroke="black" stroke-width="4"/>
<line x1="97.4844" y1="45.5039" x2="97.4844" y2="62.9336" stroke="black" stroke-width="4"/>
<line x1="29.9361" y1="64.3175" x2="76.1627" y2="32.4894" stroke="black" stroke-width="4"/>
<line y1="-2" x2="56.1242" y2="-2" transform="matrix(0.823648 0.567102 0.567102 -0.823648 116.703 31.8633)" stroke="black" stroke-width="4"/>
<line x1="12.5376" y1="116.763" x2="22.3892" y2="91.7552" stroke="black" stroke-width="4"/>
<line x1="79.9829" y1="116.763" x2="89.8345" y2="91.7552" stroke="black" stroke-width="4"/>
<line x1="147.428" y1="116.763" x2="157.28" y2="91.7552" stroke="black" stroke-width="4"/>
<line y1="-2" x2="26.8783" y2="-2" transform="matrix(0.366525 0.930408 0.930408 -0.366525 37.1328 92.4883)" stroke="black" stroke-width="4"/>
<line y1="-2" x2="26.8783" y2="-2" transform="matrix(0.366525 0.930408 0.930408 -0.366525 104.578 92.4883)" stroke="black" stroke-width="4"/>
<line y1="-2" x2="26.8783" y2="-2" transform="matrix(0.366525 0.930408 0.930408 -0.366525 172.023 92.4883)" stroke="black" stroke-width="4"/>
</svg>
