<svg width="152" height="126" viewBox="0 0 152 126" fill="none" xmlns="http://www.w3.org/2000/svg">
<rect x="2" y="28" width="96" height="96" rx="2" fill="white" stroke="black" stroke-width="4"/>
<line x1="17" y1="47" x2="76" y2="47" stroke="black" stroke-width="4"/>
<line x1="17" y1="81" x2="76" y2="81" stroke="black" stroke-width="4"/>
<line x1="17" y1="64" x2="76" y2="64" stroke="black" stroke-width="4"/>
<line x1="17" y1="98" x2="76" y2="98" stroke="black" stroke-width="4"/>
<rect x="28" y="15" width="96" height="96" rx="2" fill="white" stroke="black" stroke-width="4"/>
<line x1="43" y1="34" x2="102" y2="34" stroke="black" stroke-width="4"/>
<line x1="43" y1="68" x2="102" y2="68" stroke="black" stroke-width="4"/>
<line x1="43" y1="51" x2="102" y2="51" stroke="black" stroke-width="4"/>
<line x1="43" y1="85" x2="102" y2="85" stroke="black" stroke-width="4"/>
<rect x="54" y="2" width="96" height="96" rx="2" fill="white" stroke="black" stroke-width="4"/>
<path d="M74.518 29.9V33.462H67.108V29.9H64.768V39H67.108V35.438H74.518V39H76.858V29.9H74.518ZM83.358 39.13C87.349 39.13 89.078 37.453 89.078 34.437C89.078 31.434 87.349 29.77 83.358 29.77C79.354 29.77 77.638 31.421 77.638 34.437C77.638 37.466 79.354 39.13 83.358 39.13ZM83.358 37.167C80.927 37.167 79.978 36.309 79.978 34.437C79.978 32.578 80.914 31.733 83.358 31.733C85.802 31.733 86.738 32.591 86.738 34.437C86.738 36.296 85.789 37.167 83.358 37.167ZM105.192 29.9L102.514 37.063L99.654 29.9H96.781L93.934 37.05L91.243 29.9H88.721L92.309 39H95.533L98.224 32.149L100.902 39H104.139L107.727 29.9H105.192ZM125.711 29.9H114.531V31.863H118.951V39H121.291V31.863H125.711V29.9ZM131.638 39.13C135.629 39.13 137.358 37.453 137.358 34.437C137.358 31.434 135.629 29.77 131.638 29.77C127.634 29.77 125.918 31.421 125.918 34.437C125.918 37.466 127.634 39.13 131.638 39.13ZM131.638 37.167C129.207 37.167 128.258 36.309 128.258 34.437C128.258 32.578 129.194 31.733 131.638 31.733C134.082 31.733 135.018 32.591 135.018 34.437C135.018 36.296 134.069 37.167 131.638 37.167ZM88.3127 45.9L84.6597 53.271L81.0067 45.9H78.3807L83.0607 55H86.2587L90.9387 45.9H88.3127ZM96.1866 55.13C100.178 55.13 101.907 53.453 101.907 50.437C101.907 47.434 100.178 45.77 96.1866 45.77C92.1826 45.77 90.4666 47.421 90.4666 50.437C90.4666 53.466 92.1826 55.13 96.1866 55.13ZM96.1866 53.167C93.7556 53.167 92.8066 52.309 92.8066 50.437C92.8066 48.578 93.7426 47.733 96.1866 47.733C98.6306 47.733 99.5666 48.591 99.5666 50.437C99.5666 52.296 98.6176 53.167 96.1866 53.167ZM113.225 45.9H102.045V47.863H106.465V55H108.805V47.863H113.225V45.9ZM123.614 47.759V45.9H113.994V55H123.614V53.141H116.334V51.295H123.614V49.605H116.334V47.759H123.614ZM91.8862 69.037V61.9H89.5462C89.5462 63.642 87.7652 63.642 86.4262 63.642V65.618C87.3752 65.618 88.5842 65.618 89.5722 64.747L89.5592 69.037H86.4262V71H95.0062V69.037H91.8862ZM100.678 71.13C104.279 71.13 106.008 69.453 106.008 66.437C106.008 63.434 104.279 61.77 100.678 61.77C97.0639 61.77 95.3479 63.421 95.3479 66.437C95.3479 69.466 97.0639 71.13 100.678 71.13ZM100.678 69.167C98.6239 69.167 97.6879 68.153 97.6879 66.437C97.6879 64.734 98.6239 63.733 100.678 63.733C102.732 63.733 103.668 64.747 103.668 66.437C103.668 68.14 102.732 69.167 100.678 69.167ZM112.453 69.037V61.9H110.113C110.113 63.642 108.332 63.642 106.993 63.642V65.618C107.942 65.618 109.151 65.618 110.139 64.747L110.126 69.037H106.993V71H115.573V69.037H112.453Z" fill="black"/>
</svg>
